<svg width="80" height="80" viewBox="0 0 80 80" fill="none" xmlns="http://www.w3.org/2000/svg">
<circle cx="40" cy="40" r="39" fill="white" stroke="black" stroke-width="2"/>
<path d="M47.7384 52.08C47.5997 52.08 47.4877 52.064 47.4024 52.032C47.3171 52.0107 47.2744 51.968 47.2744 51.904C47.2744 51.776 47.4504 51.68 47.8024 51.616C48.2077 51.5413 48.5011 51.4187 48.6824 51.248C48.8744 51.0773 48.9704 50.7947 48.9704 50.4V43.648C48.9704 43.168 48.9064 42.8 48.7784 42.544C48.6611 42.288 48.3997 42.1227 47.9944 42.048C47.8131 42.016 47.6797 41.9733 47.5944 41.92C47.5091 41.8667 47.4664 41.8027 47.4664 41.728C47.4664 41.664 47.5091 41.6213 47.5944 41.6C47.6797 41.568 47.7917 41.552 47.9304 41.552C48.2184 41.552 48.4317 41.552 48.5704 41.552C48.7197 41.552 48.8584 41.5573 48.9864 41.568C49.1144 41.568 49.2851 41.568 49.4984 41.568C49.7117 41.568 49.9251 41.5627 50.1384 41.552C50.3624 41.5307 50.5704 41.5147 50.7624 41.504C50.9544 41.4827 51.1251 41.472 51.2744 41.472C52.4904 41.472 53.4664 41.7227 54.2024 42.224C54.9491 42.7253 55.3224 43.424 55.3224 44.32C55.3224 44.9707 55.1944 45.5733 54.9384 46.128C54.6824 46.672 54.2877 47.1093 53.7544 47.44C53.2317 47.7707 52.5597 47.936 51.7384 47.936C51.5037 47.936 51.3224 47.904 51.1944 47.84C51.0771 47.7653 51.0184 47.696 51.0184 47.632C51.0184 47.5893 51.0451 47.5413 51.0984 47.488C51.1624 47.4347 51.2211 47.408 51.2744 47.408C51.3277 47.408 51.4077 47.4133 51.5144 47.424C51.6317 47.4347 51.7971 47.44 52.0104 47.44C52.6504 47.44 53.1304 47.1733 53.4504 46.64C53.7811 46.1067 53.9464 45.3707 53.9464 44.432C53.9464 43.5787 53.6957 42.9493 53.1944 42.544C52.6931 42.128 52.0531 41.92 51.2744 41.92C50.9757 41.92 50.7304 41.9733 50.5384 42.08C50.3464 42.176 50.2504 42.3467 50.2504 42.592V50.224C50.2504 50.608 50.3304 50.9173 50.4904 51.152C50.6504 51.3867 50.9277 51.5413 51.3224 51.616C51.5037 51.648 51.6371 51.6853 51.7224 51.728C51.8077 51.7707 51.8504 51.8293 51.8504 51.904C51.8504 51.968 51.8077 52.0107 51.7224 52.032C51.6371 52.064 51.5251 52.08 51.3864 52.08C51.0984 52.08 50.8744 52.0693 50.7144 52.048C50.5651 52.0267 50.4264 52.0107 50.2984 52C50.1811 51.9787 50.0211 51.968 49.8184 51.968C49.5517 51.968 49.3117 51.9787 49.0984 52C48.8957 52.0107 48.6877 52.0267 48.4744 52.048C48.2717 52.0693 48.0264 52.08 47.7384 52.08Z" fill="black"/>
<path d="M40.7197 52.224C40.0157 52.224 39.3437 52.1013 38.7037 51.856C38.0637 51.6 37.4984 51.2426 37.0077 50.784C36.517 50.3146 36.1277 49.76 35.8397 49.12C35.5517 48.4693 35.4077 47.7493 35.4077 46.96C35.4077 46.2346 35.525 45.5413 35.7597 44.88C35.9944 44.208 36.341 43.6106 36.7997 43.088C37.2584 42.5653 37.829 42.1493 38.5117 41.84C39.1944 41.5306 39.9784 41.376 40.8637 41.376C41.5677 41.376 42.2397 41.504 42.8797 41.76C43.5197 42.0053 44.085 42.3626 44.5757 42.832C45.0664 43.2906 45.4557 43.8453 45.7437 44.496C46.0317 45.136 46.1757 45.8506 46.1757 46.64C46.1757 47.3546 46.0584 48.048 45.8237 48.72C45.589 49.392 45.2424 49.9893 44.7837 50.512C44.325 51.0346 43.7544 51.4506 43.0717 51.76C42.389 52.0693 41.605 52.224 40.7197 52.224ZM40.9597 51.584C41.781 51.584 42.4637 51.4133 43.0077 51.072C43.5517 50.72 43.957 50.2346 44.2237 49.616C44.501 48.9866 44.6397 48.256 44.6397 47.424C44.6397 46.688 44.5544 45.9946 44.3837 45.344C44.213 44.6933 43.957 44.1226 43.6157 43.632C43.285 43.1306 42.869 42.7413 42.3677 42.464C41.8664 42.1866 41.2797 42.048 40.6077 42.048C39.8077 42.048 39.1357 42.2186 38.5917 42.56C38.0477 42.9013 37.637 43.3813 37.3597 44C37.0824 44.608 36.9437 45.328 36.9437 46.16C36.9437 46.9066 37.0237 47.6053 37.1837 48.256C37.3544 48.9066 37.605 49.4826 37.9357 49.984C38.277 50.4853 38.6984 50.88 39.1997 51.168C39.701 51.4453 40.2877 51.584 40.9597 51.584Z" fill="black"/>
<path d="M27.7054 52.08C27.5667 52.08 27.4547 52.064 27.3694 52.032C27.284 52.0107 27.2414 51.968 27.2414 51.904C27.2414 51.8293 27.284 51.7707 27.3694 51.728C27.4547 51.6853 27.588 51.648 27.7694 51.616C28.1747 51.5413 28.484 51.4133 28.6974 51.232C28.9107 51.04 29.0174 50.752 29.0174 50.368V44.16C29.0174 43.6693 29.0067 43.296 28.9854 43.04C28.964 42.7733 28.9267 42.5867 28.8734 42.48C28.8307 42.3733 28.7667 42.3147 28.6814 42.304C28.532 42.272 28.372 42.256 28.2014 42.256C28.0414 42.2453 27.8227 42.24 27.5454 42.24H26.7934C26.5374 42.24 26.2814 42.2933 26.0254 42.4C25.78 42.496 25.5987 42.6507 25.4814 42.864C25.4494 42.9173 25.396 42.9973 25.3214 43.104C25.2467 43.2 25.1667 43.2853 25.0814 43.36C24.996 43.4347 24.9107 43.472 24.8254 43.472C24.7827 43.472 24.7507 43.4507 24.7294 43.408C24.7187 43.3653 24.7134 43.3173 24.7134 43.264C24.7134 43.1573 24.74 43.0507 24.7934 42.944C24.9427 42.6347 25.0494 42.3627 25.1134 42.128C25.188 41.8827 25.2467 41.5947 25.2894 41.264C25.3107 41.0827 25.348 40.976 25.4014 40.944C25.4654 40.912 25.5187 40.896 25.5614 40.896C25.604 40.896 25.668 40.96 25.7534 41.088C25.8494 41.216 25.9187 41.3227 25.9614 41.408C26.0254 41.5147 26.1694 41.5947 26.3934 41.648C26.628 41.7013 26.8574 41.728 27.0814 41.728H32.7134C33.0867 41.728 33.3907 41.7067 33.6254 41.664C33.86 41.6213 34.0627 41.5627 34.2334 41.488C34.3614 41.424 34.4627 41.3547 34.5374 41.28C34.6227 41.2053 34.7294 41.168 34.8574 41.168C34.8894 41.168 34.916 41.2107 34.9374 41.296C34.9587 41.3707 34.9694 41.4507 34.9694 41.536C34.9694 41.5893 34.9587 41.664 34.9374 41.76C34.9267 41.856 34.916 41.9307 34.9054 41.984C34.8734 42.176 34.8414 42.3147 34.8094 42.4C34.788 42.4853 34.772 42.56 34.7614 42.624C34.7507 42.688 34.7454 42.7893 34.7454 42.928V43.12C34.7454 43.216 34.724 43.328 34.6814 43.456C34.6387 43.5733 34.5747 43.632 34.4894 43.632C34.4147 43.632 34.356 43.5733 34.3134 43.456C34.2707 43.3387 34.228 43.1787 34.1854 42.976C34.1427 42.752 34.0147 42.576 33.8014 42.448C33.588 42.3093 33.2254 42.24 32.7134 42.24H31.0974C30.8627 42.24 30.6867 42.272 30.5694 42.336C30.452 42.4 30.3774 42.56 30.3454 42.816C30.3134 43.072 30.2974 43.4933 30.2974 44.08V50.368C30.2974 50.752 30.4094 51.04 30.6334 51.232C30.8574 51.4133 31.1667 51.5413 31.5614 51.616C31.7427 51.648 31.876 51.6853 31.9614 51.728C32.0467 51.7707 32.0894 51.8293 32.0894 51.904C32.0894 51.968 32.0467 52.0107 31.9614 52.032C31.876 52.064 31.764 52.08 31.6254 52.08C31.3374 52.08 31.0974 52.0693 30.9054 52.048C30.724 52.0373 30.548 52.0267 30.3774 52.016C30.2067 52.0053 29.9987 52 29.7534 52C29.4867 52 29.252 52.0053 29.0494 52.016C28.8574 52.0267 28.6547 52.0373 28.4414 52.048C28.2387 52.0693 27.9934 52.08 27.7054 52.08Z" fill="black"/>
<path d="M31 32L40 21L49.5 32" stroke="black"/>
</svg>
